<?xml version="1.0" standalone="no"?>
<svg xmlns="http://www.w3.org/2000/svg" viewBox="0 0 224.6 29" width="224.6" height="29"><path fill="#000000" fill-rule="nonzero" d="M4.06 19.63L4.06 19.63Q2.35 19.63 1.48 18.95Q0.60 18.26 0.30 17.02Q0 15.77 0 14.11L0 14.11L0 10.92Q0 9.17 0.31 7.93Q0.62 6.70 1.50 6.04Q2.38 5.38 4.06 5.38L4.06 5.38Q5.57 5.38 6.40 5.87Q7.22 6.36 7.54 7.33Q7.85 8.30 7.85 9.74L7.85 9.74L7.85 10.56L5.52 10.56L5.52 9.72Q5.52 8.81 5.40 8.28Q5.28 7.75 4.97 7.51Q4.66 7.27 4.08 7.27L4.08 7.27Q3.46 7.27 3.12 7.56Q2.78 7.85 2.68 8.53Q2.57 9.22 2.57 10.39L2.57 10.39L2.57 14.76Q2.57 16.54 2.90 17.14Q3.24 17.74 4.10 17.74L4.10 17.74Q4.75 17.74 5.05 17.44Q5.35 17.14 5.44 16.58Q5.52 16.03 5.52 15.34L5.52 15.34L5.52 14.21L7.85 14.21L7.85 15.17Q7.85 16.56 7.52 17.57Q7.20 18.58 6.37 19.10Q5.54 19.63 4.06 19.63ZM13.94 19.63L13.94 19.63Q12.41 19.63 11.52 19.01Q10.63 18.38 10.26 17.23Q9.89 16.08 9.89 14.52L9.89 14.52L9.89 10.49Q9.89 8.93 10.26 7.78Q10.63 6.62 11.52 6.00Q12.41 5.38 13.94 5.38L13.94 5.38Q15.48 5.38 16.36 6.00Q17.23 6.62 17.60 7.78Q17.98 8.93 17.98 10.49L17.98 10.49L17.98 14.52Q17.98 16.08 17.60 17.23Q17.23 18.38 16.36 19.01Q15.48 19.63 13.94 19.63ZM13.94 17.74L13.94 17.74Q14.69 17.74 14.99 17.30Q15.29 16.87 15.35 16.16Q15.41 15.46 15.41 14.69L15.41 14.69L15.41 10.34Q15.41 9.55 15.35 8.86Q15.29 8.16 14.99 7.72Q14.69 7.27 13.94 7.27L13.94 7.27Q13.20 7.27 12.89 7.72Q12.58 8.16 12.52 8.86Q12.46 9.55 12.46 10.34L12.46 10.34L12.46 14.69Q12.46 15.46 12.52 16.16Q12.58 16.87 12.89 17.30Q13.20 17.74 13.94 17.74ZM23.14 19.44L20.57 19.44L20.57 0L23.14 0L23.14 19.44ZM28.63 19.44L26.06 19.44L26.06 0L28.63 0L28.63 19.44ZM33.82 19.63L33.82 19.63Q33.00 19.63 32.38 19.16Q31.75 18.70 31.39 17.96Q31.03 17.23 31.03 16.42L31.03 16.42Q31.03 15.12 31.46 14.23Q31.90 13.34 32.65 12.73Q33.41 12.12 34.40 11.66Q35.40 11.21 36.50 10.78L36.50 10.78L36.50 9.79Q36.50 8.95 36.41 8.40Q36.31 7.85 36.01 7.57Q35.71 7.30 35.11 7.30L35.11 7.30Q34.58 7.30 34.26 7.54Q33.94 7.78 33.79 8.22Q33.65 8.66 33.65 9.26L33.65 9.26L33.65 9.96L31.10 9.86Q31.15 7.56 32.16 6.47Q33.17 5.38 35.28 5.38L35.28 5.38Q37.34 5.38 38.21 6.50Q39.07 7.63 39.07 9.77L39.07 9.77L39.07 16.10Q39.07 16.75 39.11 17.35Q39.14 17.95 39.20 18.47Q39.26 18.98 39.31 19.44L39.31 19.44L36.96 19.44Q36.89 19.06 36.78 18.47Q36.67 17.88 36.62 17.40L36.62 17.40Q36.38 18.22 35.70 18.92Q35.02 19.63 33.82 19.63ZM34.82 17.42L34.82 17.42Q35.21 17.42 35.54 17.21Q35.88 16.99 36.14 16.72Q36.41 16.44 36.50 16.27L36.50 16.27L36.50 12.34Q35.90 12.67 35.38 13.01Q34.85 13.34 34.45 13.72Q34.06 14.09 33.83 14.56Q33.60 15.02 33.60 15.62L33.60 15.62Q33.60 16.46 33.91 16.94Q34.22 17.42 34.82 17.42ZM46.51 19.63L46.51 19.63Q45.77 19.63 45.18 19.26Q44.59 18.89 44.16 18.43L44.16 18.43L44.16 19.44L41.59 19.44L41.59 0L44.16 0L44.16 6.67Q44.62 6.14 45.25 5.76Q45.89 5.38 46.78 5.38L46.78 5.38Q47.86 5.38 48.49 5.94Q49.13 6.50 49.44 7.36Q49.75 8.21 49.85 9.08Q49.94 9.96 49.94 10.58L49.94 10.58L49.94 13.94Q49.94 15.41 49.66 16.72Q49.37 18.02 48.62 18.83Q47.88 19.63 46.51 19.63ZM45.98 17.62L45.98 17.62Q46.66 17.62 46.94 17.12Q47.23 16.63 47.30 15.79Q47.38 14.95 47.38 13.94L47.38 13.94L47.38 10.58Q47.38 9.72 47.28 8.99Q47.18 8.26 46.87 7.82Q46.56 7.39 45.89 7.39L45.89 7.39Q45.38 7.39 44.94 7.61Q44.50 7.82 44.16 8.09L44.16 8.09L44.16 16.99Q44.50 17.26 44.96 17.44Q45.43 17.62 45.98 17.62ZM56.09 19.63L56.09 19.63Q54.55 19.63 53.66 19.01Q52.78 18.38 52.40 17.23Q52.03 16.08 52.03 14.52L52.03 14.52L52.03 10.49Q52.03 8.93 52.40 7.78Q52.78 6.62 53.66 6.00Q54.55 5.38 56.09 5.38L56.09 5.38Q57.62 5.38 58.50 6.00Q59.38 6.62 59.75 7.78Q60.12 8.93 60.12 10.49L60.12 10.49L60.12 14.52Q60.12 16.08 59.75 17.23Q59.38 18.38 58.50 19.01Q57.62 19.63 56.09 19.63ZM56.09 17.74L56.09 17.74Q56.83 17.74 57.13 17.30Q57.43 16.87 57.49 16.16Q57.55 15.46 57.55 14.69L57.55 14.69L57.55 10.34Q57.55 9.55 57.49 8.86Q57.43 8.16 57.13 7.72Q56.83 7.27 56.09 7.27L56.09 7.27Q55.34 7.27 55.03 7.72Q54.72 8.16 54.66 8.86Q54.60 9.55 54.60 10.34L54.60 10.34L54.60 14.69Q54.60 15.46 54.66 16.16Q54.72 16.87 55.03 17.30Q55.34 17.74 56.09 17.74ZM65.11 19.44L62.54 19.44L62.54 5.57L65.11 5.57L65.11 7.54Q65.88 6.26 66.65 5.83Q67.42 5.40 68.18 5.40L68.18 5.40Q68.28 5.40 68.36 5.40Q68.45 5.40 68.59 5.42L68.59 5.42L68.59 8.26Q68.30 8.14 67.93 8.05Q67.56 7.97 67.18 7.97L67.18 7.97Q66.58 7.97 66.08 8.24Q65.59 8.52 65.11 9.31L65.11 9.31L65.11 19.44ZM72.67 19.63L72.67 19.63Q71.86 19.63 71.23 19.16Q70.61 18.70 70.25 17.96Q69.89 17.23 69.89 16.42L69.89 16.42Q69.89 15.12 70.32 14.23Q70.75 13.34 71.51 12.73Q72.26 12.12 73.26 11.66Q74.26 11.21 75.36 10.78L75.36 10.78L75.36 9.79Q75.36 8.95 75.26 8.40Q75.17 7.85 74.87 7.57Q74.57 7.30 73.97 7.30L73.97 7.30Q73.44 7.30 73.12 7.54Q72.79 7.78 72.65 8.22Q72.50 8.66 72.50 9.26L72.50 9.26L72.50 9.96L69.96 9.86Q70.01 7.56 71.02 6.47Q72.02 5.38 74.14 5.38L74.14 5.38Q76.20 5.38 77.06 6.50Q77.93 7.63 77.93 9.77L77.93 9.77L77.93 16.10Q77.93 16.75 77.96 17.35Q78.00 17.95 78.06 18.47Q78.12 18.98 78.17 19.44L78.17 19.44L75.82 19.44Q75.74 19.06 75.64 18.47Q75.53 17.88 75.48 17.40L75.48 17.40Q75.24 18.22 74.56 18.92Q73.87 19.63 72.67 19.63ZM73.68 17.42L73.68 17.42Q74.06 17.42 74.40 17.21Q74.74 16.99 75.00 16.72Q75.26 16.44 75.36 16.27L75.36 16.27L75.36 12.34Q74.76 12.67 74.23 13.01Q73.70 13.34 73.31 13.72Q72.91 14.09 72.68 14.56Q72.46 15.02 72.46 15.62L72.46 15.62Q72.46 16.46 72.77 16.94Q73.08 17.42 73.68 17.42ZM83.90 19.63L83.90 19.63Q82.82 19.63 82.16 19.22Q81.50 18.82 81.20 18.07Q80.90 17.33 80.90 16.32L80.90 16.32L80.90 7.27L79.44 7.27L79.44 5.57L80.90 5.57L80.90 1.51L83.47 1.51L83.47 5.57L85.70 5.57L85.70 7.27L83.47 7.27L83.47 16.15Q83.47 16.97 83.74 17.32Q84.00 17.66 84.74 17.66L84.74 17.66Q84.94 17.66 85.19 17.64Q85.44 17.62 85.68 17.59L85.68 17.59L85.68 19.49Q85.20 19.56 84.79 19.60Q84.38 19.63 83.90 19.63ZM90.34 19.44L87.77 19.44L87.77 5.57L90.34 5.57L90.34 19.44ZM90.34 3.50L87.77 3.50L87.77 0.82L90.34 0.82L90.34 3.50ZM98.04 19.44L94.90 19.44L92.16 5.57L94.75 5.57L96.46 16.73L98.18 5.57L100.68 5.57L98.04 19.44ZM106.18 19.63L106.18 19.63Q104.54 19.63 103.66 19.00Q102.77 18.36 102.42 17.12Q102.07 15.89 102.07 14.09L102.07 14.09L102.07 10.92Q102.07 9.07 102.43 7.85Q102.79 6.62 103.69 6.00Q104.59 5.38 106.18 5.38L106.18 5.38Q107.93 5.38 108.76 6.10Q109.58 6.82 109.85 8.17Q110.11 9.53 110.11 11.42L110.11 11.42L110.11 12.55L104.64 12.55L104.64 15.34Q104.64 16.18 104.80 16.70Q104.95 17.23 105.30 17.48Q105.65 17.74 106.20 17.74L106.20 17.74Q106.78 17.74 107.08 17.46Q107.38 17.18 107.48 16.67Q107.59 16.15 107.59 15.46L107.59 15.46L107.59 14.62L110.09 14.62L110.09 15.14Q110.09 17.23 109.20 18.43Q108.31 19.63 106.18 19.63ZM104.64 10.42L104.64 11.16L107.59 11.16L107.59 9.91Q107.59 9.05 107.50 8.46Q107.40 7.87 107.10 7.57Q106.80 7.27 106.15 7.27L106.15 7.27Q105.53 7.27 105.20 7.56Q104.88 7.85 104.76 8.53Q104.64 9.22 104.64 10.42L104.64 10.42ZM120.50 24L117.94 24L117.94 5.57L120.50 5.57L120.50 6.67Q120.96 6.14 121.61 5.76Q122.26 5.38 123.14 5.38L123.14 5.38Q124.22 5.38 124.86 5.94Q125.50 6.50 125.81 7.36Q126.12 8.21 126.22 9.08Q126.31 9.96 126.31 10.58L126.31 10.58L126.31 13.94Q126.31 15.41 126.02 16.72Q125.74 18.02 124.98 18.83Q124.22 19.63 122.86 19.63L122.86 19.63Q122.11 19.63 121.54 19.26Q120.96 18.89 120.50 18.41L120.50 18.41L120.50 24ZM122.35 17.62L122.35 17.62Q123.02 17.62 123.31 17.12Q123.60 16.63 123.67 15.79Q123.74 14.95 123.74 13.94L123.74 13.94L123.74 10.58Q123.74 9.72 123.65 8.99Q123.55 8.26 123.24 7.82Q122.93 7.39 122.26 7.39L122.26 7.39Q121.75 7.39 121.30 7.61Q120.84 7.82 120.50 8.11L120.50 8.11L120.50 16.99Q120.86 17.26 121.32 17.44Q121.78 17.62 122.35 17.62ZM131.28 19.44L128.71 19.44L128.71 5.57L131.28 5.57L131.28 7.54Q132.05 6.26 132.82 5.83Q133.58 5.40 134.35 5.40L134.35 5.40Q134.45 5.40 134.53 5.40Q134.62 5.40 134.76 5.42L134.76 5.42L134.76 8.26Q134.47 8.14 134.10 8.05Q133.73 7.97 133.34 7.97L133.34 7.97Q132.74 7.97 132.25 8.24Q131.76 8.52 131.28 9.31L131.28 9.31L131.28 19.44ZM140.16 19.63L140.16 19.63Q138.62 19.63 137.74 19.01Q136.85 18.38 136.48 17.23Q136.10 16.08 136.10 14.52L136.10 14.52L136.10 10.49Q136.10 8.93 136.48 7.78Q136.85 6.62 137.74 6.00Q138.62 5.38 140.16 5.38L140.16 5.38Q141.70 5.38 142.57 6.00Q143.45 6.62 143.82 7.78Q144.19 8.93 144.19 10.49L144.19 10.49L144.19 14.52Q144.19 16.08 143.82 17.23Q143.45 18.38 142.57 19.01Q141.70 19.63 140.16 19.63ZM140.16 17.74L140.16 17.74Q140.90 17.74 141.20 17.30Q141.50 16.87 141.56 16.16Q141.62 15.46 141.62 14.69L141.62 14.69L141.62 10.34Q141.62 9.55 141.56 8.86Q141.50 8.16 141.20 7.72Q140.90 7.27 140.16 7.27L140.16 7.27Q139.42 7.27 139.10 7.72Q138.79 8.16 138.73 8.86Q138.67 9.55 138.67 10.34L138.67 10.34L138.67 14.69Q138.67 15.46 138.73 16.16Q138.79 16.87 139.10 17.30Q139.42 17.74 140.16 17.74ZM146.11 22.94L146.11 22.94Q145.80 22.94 145.43 22.91Q145.06 22.87 144.79 22.78L144.79 22.78L144.79 20.93Q144.91 20.95 145.13 20.98Q145.34 21 145.46 21L145.46 21Q146.02 21 146.33 20.78Q146.64 20.57 146.77 20.18Q146.90 19.80 146.90 19.32L146.90 19.32L146.90 5.57L149.47 5.57L149.47 19.58Q149.47 21.22 148.57 22.08Q147.67 22.94 146.11 22.94ZM149.50 3.50L146.90 3.50L146.90 0.82L149.50 0.82L149.50 3.50ZM155.90 19.63L155.90 19.63Q154.27 19.63 153.38 19.00Q152.50 18.36 152.15 17.12Q151.80 15.89 151.80 14.09L151.80 14.09L151.80 10.92Q151.80 9.07 152.16 7.85Q152.52 6.62 153.42 6.00Q154.32 5.38 155.90 5.38L155.90 5.38Q157.66 5.38 158.48 6.10Q159.31 6.82 159.58 8.17Q159.84 9.53 159.84 11.42L159.84 11.42L159.84 12.55L154.37 12.55L154.37 15.34Q154.37 16.18 154.52 16.70Q154.68 17.23 155.03 17.48Q155.38 17.74 155.93 17.74L155.93 17.74Q156.50 17.74 156.80 17.46Q157.10 17.18 157.21 16.67Q157.32 16.15 157.32 15.46L157.32 15.46L157.32 14.62L159.82 14.62L159.82 15.14Q159.82 17.23 158.93 18.43Q158.04 19.63 155.90 19.63ZM154.37 10.42L154.37 11.16L157.32 11.16L157.32 9.91Q157.32 9.05 157.22 8.46Q157.13 7.87 156.83 7.57Q156.53 7.27 155.88 7.27L155.88 7.27Q155.26 7.27 154.93 7.56Q154.61 7.85 154.49 8.53Q154.37 9.22 154.37 10.42L154.37 10.42ZM165.96 19.63L165.96 19.63Q164.26 19.63 163.38 18.95Q162.50 18.26 162.20 17.02Q161.90 15.77 161.90 14.11L161.90 14.11L161.90 10.92Q161.90 9.17 162.22 7.93Q162.53 6.70 163.40 6.04Q164.28 5.38 165.96 5.38L165.96 5.38Q167.47 5.38 168.30 5.87Q169.13 6.36 169.44 7.33Q169.75 8.30 169.75 9.74L169.75 9.74L169.75 10.56L167.42 10.56L167.42 9.72Q167.42 8.81 167.30 8.28Q167.18 7.75 166.87 7.51Q166.56 7.27 165.98 7.27L165.98 7.27Q165.36 7.27 165.02 7.56Q164.69 7.85 164.58 8.53Q164.47 9.22 164.47 10.39L164.47 10.39L164.47 14.76Q164.47 16.54 164.81 17.14Q165.14 17.74 166.01 17.74L166.01 17.74Q166.66 17.74 166.96 17.44Q167.26 17.14 167.34 16.58Q167.42 16.03 167.42 15.34L167.42 15.34L167.42 14.21L169.75 14.21L169.75 15.17Q169.75 16.56 169.43 17.57Q169.10 18.58 168.28 19.10Q167.45 19.63 165.96 19.63ZM175.73 19.63L175.73 19.63Q174.65 19.63 173.99 19.22Q173.33 18.82 173.03 18.07Q172.73 17.33 172.73 16.32L172.73 16.32L172.73 7.27L171.26 7.27L171.26 5.57L172.73 5.57L172.73 1.51L175.30 1.51L175.30 5.57L177.53 5.57L177.53 7.27L175.30 7.27L175.30 16.15Q175.30 16.97 175.56 17.32Q175.82 17.66 176.57 17.66L176.57 17.66Q176.76 17.66 177.01 17.64Q177.26 17.62 177.50 17.59L177.50 17.59L177.50 19.49Q177.02 19.56 176.62 19.60Q176.21 19.63 175.73 19.63Z" transform="translate(0, 2.5)"></path><line x1="186.52800000000002" y1="2%" x2="186.52800000000002" y2="98%" stroke="#000000" stroke-linecap="round"></line><g fill="#ead017" color="#ead017" transform="translate(195.52800000000002 0) scale(0.659091)"><svg width="44.0" height="44.0" x="0.0" y="0.0" viewBox="0 0 44 44"><path fill="currentColor" fill-rule="evenodd" d="M38.728 38.728c-4.084 4.085-10.73 4.085-14.814 0l-.444-.397c-.097-.097-.916-.91-1.519-2.168a8.669 8.669 0 0 1-1.513 2.212l-.353.353c-4.084 4.085-10.73 4.085-14.814 0-4.084-4.084-4.084-10.73 0-14.814l11.891-11.89.857.856-11.89 11.891c-3.613 3.612-3.613 9.489 0 13.1 3.611 3.614 9.488 3.614 13.1 0l.371-.372c.938-.973 1.646-2.475 1.698-4.023 0-.045.004-.09.005-.135.01-1.21-.385-2.435-1.398-3.45l-1.888-1.886-.18-.194-3.395-3.393.857-.857 4.739 4.739.397.405c.703.704 1.202 1.403 1.545 2.087.345-.66.834-1.335 1.517-2.018l.065-.073 11.892-11.89a5.851 5.851 0 0 0 0-8.265 5.85 5.85 0 0 0-8.263 0l-.353.354-.857-.857.353-.353c2.75-2.75 7.226-2.75 9.976 0 2.751 2.75 2.751 7.226 0 9.976L24.418 29.558l-.375.377c-2.38 2.38-1.446 5.788.295 7.527l.433.41c3.612 3.613 9.488 3.613 13.1 0 3.613-3.612 3.613-9.489 0-13.1l-.353-.354.857-.857.353.354c4.084 4.084 4.084 10.73 0 14.813zM15.6 10.461l-5.14 5.14-.352-.353a3.639 3.639 0 0 1 0-5.14 3.638 3.638 0 0 1 5.14 0l.352.353zm1.21-1.914a5.849 5.849 0 0 0-8.263 0 5.85 5.85 0 0 0 0 8.263l.352.353-.856.856-.353-.352c-2.75-2.751-2.75-7.227 0-9.978 2.75-2.75 7.226-2.75 9.976 0l11.892 11.892-.857.856L16.81 8.547zM22 16.86L27.138 22l-5.14 5.139L16.86 22 22 16.86zM10.46 28.4l5.14 5.138-.353.353a3.638 3.638 0 0 1-5.139 0 3.639 3.639 0 0 1 0-5.14l.353-.351zm-.78-2.344l-1.134 1.133a5.85 5.85 0 0 0 0 8.264 5.85 5.85 0 0 0 8.263 0l.353-.353c1.741-1.74-.354-3.473-1.362-4.482l-.657-.661-3.12-3.121.856-.856 4.15 4.15.328.329c3.052 3.05.899 5.26.662 5.497l-.353.353c-2.75 2.752-7.226 2.75-9.977 0-2.75-2.75-2.75-7.226 0-9.977l11.892-11.89.856.857-5.92 5.92-4.837 4.837zM28.399 10.46l.353-.353a3.64 3.64 0 0 1 5.14 0 3.64 3.64 0 0 1 0 5.14l-.353.352-5.14-5.14zM5.271 5.27c4.084-4.084 10.73-4.084 14.814 0l11.89 11.89-.856.858L19.23 6.128c-3.613-3.612-9.489-3.612-13.1 0-3.613 3.612-3.613 9.489 0 13.1l.352.353-.857.857-.353-.352C1.187 16 1.187 9.356 5.271 5.27zm28.62 28.62a3.64 3.64 0 0 1-5.14 0l-.352-.352 5.14-5.14.352.352a3.64 3.64 0 0 1 0 5.14zm-9.977-28.62c4.085-4.084 10.73-4.084 14.814 0s4.084 10.73 0 14.814L26.837 31.976c-.91.911-1.132 1.992-.053 3.083l.406.394a5.85 5.85 0 0 0 8.263 0 5.85 5.85 0 0 0 0-8.263l-.352-.353.856-.856.353.353a7.061 7.061 0 0 1 0 9.976c-2.75 2.75-7.227 2.75-9.977 0 0 0-.173-.146-.407-.382-.215-.218-2.358-2.395.055-4.808l11.89-11.891c3.613-3.612 3.613-9.489 0-13.101-3.611-3.612-9.488-3.612-13.1 0l-.353.353-.856-.856.352-.354zM39.938 22l.353-.353c4.945-4.946 4.945-12.992 0-17.938-4.946-4.945-12.992-4.945-17.938 0L22 4.062l-.353-.353c-4.945-4.945-12.992-4.945-17.938 0-4.945 4.946-4.945 12.992 0 17.938l.353.353-.352.353c-4.946 4.945-4.946 12.991 0 17.938 4.945 4.945 12.992 4.945 17.937 0l.353-.353.353.353c4.946 4.945 12.992 4.945 17.938 0 4.945-4.947 4.945-12.993 0-17.938L39.938 22z"></path></svg></g></svg>